<svg width="18" height="18" viewBox="0 0 18 18" fill="none" xmlns="http://www.w3.org/2000/svg">
<g id="ant-design:star-filled">
<path id="Vector" d="M15.9611 6.2066L11.498 5.55797L9.50289 1.51325C9.4484 1.4025 9.35875 1.31285 9.24801 1.25836C8.97028 1.12125 8.63278 1.23551 8.49391 1.51325L6.49879 5.55797L2.03571 6.2066C1.91266 6.22418 1.80016 6.28219 1.71403 6.37008C1.6099 6.47711 1.55252 6.6211 1.55449 6.77041C1.55647 6.91972 1.61764 7.06214 1.72457 7.16637L4.95367 10.3146L4.19078 14.7601C4.17289 14.8635 4.18434 14.9699 4.22382 15.0671C4.2633 15.1644 4.32923 15.2486 4.41415 15.3103C4.49906 15.3719 4.59956 15.4086 4.70424 15.4161C4.80892 15.4235 4.9136 15.4015 5.00641 15.3525L8.9984 13.2537L12.9904 15.3525C13.0994 15.4105 13.2259 15.4298 13.3472 15.4088C13.6531 15.356 13.8588 15.066 13.806 14.7601L13.0431 10.3146L16.2722 7.16637C16.3601 7.08024 16.4181 6.96774 16.4357 6.84469C16.4832 6.53707 16.2687 6.25231 15.9611 6.2066Z" fill="#FFC000"/>
</g>
</svg>
